<svg xmlns="http://www.w3.org/2000/svg" width="25" height="25" viewBox="0 0 25 25"><defs><style>.a{fill:#fff;}</style></defs><path class="a" d="M21.633,0H3.371A3.369,3.369,0,0,0,0,3.369V21.631A3.369,3.369,0,0,0,3.371,25h9.007l.015-8.934H10.072a.548.548,0,0,1-.548-.546l-.011-2.88a.548.548,0,0,1,.548-.55h2.317V9.309c0-3.229,1.972-4.987,4.853-4.987h2.364a.548.548,0,0,1,.548.548V7.3a.548.548,0,0,1-.547.548H18.144c-1.567,0-1.87.744-1.87,1.837v2.409h3.442a.548.548,0,0,1,.544.612l-.341,2.88a.548.548,0,0,1-.544.483H16.289L16.274,25h5.359A3.369,3.369,0,0,0,25,21.631V3.369A3.369,3.369,0,0,0,21.633,0Z" transform="translate(-0.002)"/></svg>