<svg xmlns="http://www.w3.org/2000/svg" width="25" height="25" viewBox="0 0 25 25"><defs><style>.a{fill:#fff;}</style></defs><g transform="translate(0.001)"><path class="a" d="M18.232,0H6.766A6.775,6.775,0,0,0,0,6.767V18.233A6.775,6.775,0,0,0,6.766,25H18.232A6.775,6.775,0,0,0,25,18.233V6.767A6.775,6.775,0,0,0,18.232,0ZM12.5,19.336A6.836,6.836,0,1,1,19.335,12.5,6.843,6.843,0,0,1,12.5,19.336Zm7-12.059a2.02,2.02,0,1,1,2.02-2.02A2.022,2.022,0,0,1,19.5,7.276Zm0,0"/><path class="a" d="M151.39,146.02a5.37,5.37,0,1,0,5.37,5.37A5.376,5.376,0,0,0,151.39,146.02Zm0,0" transform="translate(-138.891 -138.89)"/><path class="a" d="M388.547,96.3a.554.554,0,1,0,.554.554A.555.555,0,0,0,388.547,96.3Zm0,0" transform="translate(-369.048 -91.599)"/></g></svg>