<svg xmlns="http://www.w3.org/2000/svg" width="36.62" height="22.093" viewBox="0 0 36.62 22.093"><defs><style>.a{fill:#931b1d;}.b{fill:#f16622;}.c{fill:#f7981d;}.d{fill:#cb2026;}.e{fill:#fff;}</style></defs><g transform="translate(-51.288 -121.955)"><path class="a" d="M62.178,121.955a10.983,10.983,0,1,0,7.444,19.1h0a11.027,11.027,0,0,0,1.113-1.176H68.491a10.629,10.629,0,0,1-.817-1.132h3.872a10.981,10.981,0,0,0,.639-1.175h-5.15a10.7,10.7,0,0,1-.458-1.154h6.066a10.96,10.96,0,0,0,.564-3.483,11.081,11.081,0,0,0-.252-2.353h-6.7a11.183,11.183,0,0,1,.312-1.153h6.069a11.009,11.009,0,0,0-.473-1.176H67.035a10.6,10.6,0,0,1,.628-1.154h3.87a10.91,10.91,0,0,0-.85-1.175H68.525a10.041,10.041,0,0,1,1.1-1.109,10.9,10.9,0,0,0-7.375-2.863Z" transform="translate(0 0)"/><path class="b" d="M219.3,132.942a10.959,10.959,0,1,1-21.919,0v0a10.96,10.96,0,1,1,21.919-.006S219.3,132.938,219.3,132.942Z" transform="translate(-131.389 0)"/><path class="c" d="M219.3,134.153a10.959,10.959,0,1,1-21.919.006v-.006a10.96,10.96,0,1,1,21.919-.006S219.3,134.151,219.3,134.153Z" transform="translate(-131.389 -1.09)"/><path class="d" d="M62.178,123.193a10.983,10.983,0,1,0,7.444,19.1h0a10.857,10.857,0,0,0,1.113-1.176H68.491a10.542,10.542,0,0,1-.817-1.13h3.872a11.076,11.076,0,0,0,.639-1.176h-5.15a10.785,10.785,0,0,1-.458-1.153h6.066a10.966,10.966,0,0,0,.564-3.484,11.077,11.077,0,0,0-.252-2.352h-6.7a11.184,11.184,0,0,1,.312-1.153h6.069a11.02,11.02,0,0,0-.473-1.177H67.035a10.693,10.693,0,0,1,.628-1.153h3.87a11.114,11.114,0,0,0-.85-1.176H68.525a10.173,10.173,0,0,1,1.1-1.109,10.9,10.9,0,0,0-7.375-2.863Z" transform="translate(0 -1.113)"/><g transform="translate(52.328 130.226)"><path class="e" d="M183.232,214.119l.147-.994c-.08,0-.2.034-.3.034-.406,0-.451-.216-.425-.376l.328-2.028h.617l.149-1.1h-.582l.119-.683h-1.167c-.025.026-.689,3.846-.689,4.31a.867.867,0,0,0,.93.991A3.066,3.066,0,0,0,183.232,214.119Z" transform="translate(-169.371 -208.487)"/><path class="e" d="M203.035,217.174a1.833,1.833,0,0,0,2.015,2.046,2.952,2.952,0,0,0,1.232-.192l.206-1.128a3.609,3.609,0,0,1-1.239.289c-1.253,0-1.033-.937-1.033-.937h2.372a8.478,8.478,0,0,0,.152-1.067,1.567,1.567,0,0,0-1.664-1.709C203.9,214.475,203.035,215.742,203.035,217.174Zm2.047-1.652c.658,0,.537.742.537.8h-1.3C204.322,216.247,204.445,215.522,205.082,215.522Z" transform="translate(-188.804 -213.436)"/><path class="e" d="M268.9,209.782l.209-1.276a2.793,2.793,0,0,1-.965.289,1.157,1.157,0,0,1-1.159-1.314c0-1.381.712-2.141,1.505-2.141a2.074,2.074,0,0,1,1.072.335l.19-1.238a4.172,4.172,0,0,0-1.314-.288c-1.347,0-2.658,1.17-2.658,3.371,0,1.457.708,2.422,2.1,2.422A5.363,5.363,0,0,0,268.9,209.782Z" transform="translate(-245.237 -204.149)"/><path class="e" d="M116.206,214.654a4.031,4.031,0,0,0-1.414.257l-.169,1.008a3.689,3.689,0,0,1,1.272-.206c.435,0,.752.049.752.4a.752.752,0,0,1-.039.294s-.342-.029-.5-.029c-1.009,0-2.069.432-2.069,1.734a1.109,1.109,0,0,0,1.126,1.261,1.516,1.516,0,0,0,1.2-.537l-.038.447h1.027l.459-3.221A1.381,1.381,0,0,0,116.206,214.654Zm.25,2.621c.022.2-.123,1.119-.826,1.119a.426.426,0,0,1-.457-.442c0-.32.174-.7,1.029-.7A.762.762,0,0,1,116.457,217.275Z" transform="translate(-108.763 -213.597)"/><path class="e" d="M150.661,219.417c.262,0,1.765.067,1.765-1.486,0-1.453-1.391-1.166-1.391-1.75,0-.29.227-.382.641-.382.165,0,.8.053.8.053l.148-1.033a5.456,5.456,0,0,0-1.076-.091c-.864,0-1.74.344-1.74,1.526,0,1.34,1.461,1.2,1.461,1.769,0,.377-.409.407-.723.407a3.792,3.792,0,0,1-1.036-.179l-.155,1.022A3.647,3.647,0,0,0,150.661,219.417Z" transform="translate(-140.523 -213.663)"/><path class="e" d="M363,205.423l-.251,1.565a1.542,1.542,0,0,0-1.127-.607c-1.07,0-1.961,1.292-1.961,2.776,0,.958.475,1.9,1.447,1.9a1.456,1.456,0,0,0,1.086-.488l-.051.417h1.135l.892-5.561Zm-.542,3.053c0,.617-.306,1.441-.938,1.441-.42,0-.616-.353-.616-.908,0-.906.406-1.505.918-1.505C362.247,207.5,362.463,207.794,362.463,208.475Z" transform="translate(-329.673 -205.292)"/><path class="e" d="M62.743,210.975l.711-4.2.1,4.2h.8l1.5-4.2-.665,4.2h1.194l.921-5.567H65.465l-1.15,3.415-.06-3.415h-1.7l-.933,5.567Z" transform="translate(-61.619 -205.281)"/><path class="e" d="M240.745,219.773c.34-1.935.4-3.507,1.214-3.221a4.532,4.532,0,0,1,.433-1.356,1.214,1.214,0,0,0-.225-.015c-.521,0-.909.715-.909.715l.1-.657h-1.087l-.727,4.533Z" transform="translate(-221.642 -214.072)"/><path class="e" d="M304.169,214.654a4.027,4.027,0,0,0-1.413.257l-.169,1.008a3.68,3.68,0,0,1,1.271-.206c.434,0,.752.049.752.4a.746.746,0,0,1-.039.294s-.342-.029-.5-.029c-1.009,0-2.068.432-2.068,1.734a1.109,1.109,0,0,0,1.126,1.261,1.513,1.513,0,0,0,1.2-.537l-.038.447h1.028l.458-3.221A1.38,1.38,0,0,0,304.169,214.654Zm.251,2.621c.022.2-.123,1.119-.827,1.119a.425.425,0,0,1-.456-.442c0-.32.174-.7,1.028-.7A.764.764,0,0,1,304.42,217.275Z" transform="translate(-277.811 -213.597)"/><path class="e" d="M338.092,219.773c.34-1.935.4-3.507,1.214-3.221a4.5,4.5,0,0,1,.434-1.356,1.232,1.232,0,0,0-.225-.015c-.523,0-.909.715-.909.715l.1-.657h-1.087l-.727,4.533h1.2Z" transform="translate(-309.192 -214.072)"/></g></g></svg>