<svg xmlns="http://www.w3.org/2000/svg" width="40.351" height="12.628" viewBox="0 0 40.351 12.628"><defs><style>.a{fill:#2394bc;}.b{fill:#efc75e;}</style></defs><g transform="translate(0 -100.23)"><g transform="translate(3.77 100.23)"><g transform="translate(0 0)"><path class="a" d="M39.985,100.23l-2.025,12.6H41.2l2.024-12.6Zm9.764,5.133c-1.131-.559-1.825-.936-1.825-1.507.014-.519.586-1.052,1.865-1.052a5.633,5.633,0,0,1,2.411.467l.294.131.44-2.637a8.17,8.17,0,0,0-2.905-.519c-3.2,0-5.447,1.662-5.461,4.039-.026,1.754,1.611,2.727,2.837,3.311,1.252.6,1.678.987,1.678,1.52-.014.817-1.013,1.194-1.944,1.194a6.583,6.583,0,0,1-3.038-.649l-.426-.194-.453,2.74a10.109,10.109,0,0,0,3.61.651c3.4,0,5.608-1.637,5.635-4.17C52.479,107.3,51.615,106.234,49.749,105.363Zm11.484-5.094h-2.5a1.6,1.6,0,0,0-1.692,1.014l-4.808,11.549h3.4l.936-2.5h3.8l.485,2.511h3Zm-3.73,7.539c.066.006,1.3-4.082,1.3-4.082l.986,4.082ZM35.255,100.23l-3.171,8.562-.345-1.689a9.409,9.409,0,0,0-4.477-5.117l2.9,10.833h3.425l5.089-12.588H35.255Z" transform="translate(-27.262 -100.23)"/></g></g><path class="b" d="M7.18,101.871a2.115,2.115,0,0,0-2.106-1.623H.052L0,100.481c3.918.966,7.206,3.938,8.273,6.734Z" transform="translate(0 -0.016)"/></g></svg>