<svg xmlns="http://www.w3.org/2000/svg" width="795.306" height="1229.012" viewBox="0 0 795.306 1229.012"><defs><style>.a{opacity:0.5;}.b{fill:none;stroke:#e4ca7f;stroke-miterlimit:10;stroke-width:3px;}.c{fill:#e4ca7f;}</style></defs><g class="a" transform="translate(1000.5 23172.756)"><path class="b" d="M835.261,398.81h0a16.178,16.178,0,0,0,16.179,16.178h51.672a16.178,16.178,0,0,1,16.178,16.178v51.674a16.178,16.178,0,0,0,16.179,16.178h0a16.178,16.178,0,0,0,16.178-16.178V398.81a16.178,16.178,0,0,0-16.178-16.178H851.44A16.178,16.178,0,0,0,835.261,398.81Z" transform="translate(-1834.261 -23144.559)"/><path class="c" d="M880.707,353.364h0a16.178,16.178,0,0,0,16.179,16.178h51.672a16.178,16.178,0,0,1,16.178,16.179v51.672a16.178,16.178,0,0,0,16.179,16.178h0a16.178,16.178,0,0,0,16.178-16.178V353.364a16.178,16.178,0,0,0-16.178-16.178H896.886A16.178,16.178,0,0,0,880.707,353.364Z" transform="translate(-1821.017 -23157.803)"/><path class="b" d="M926.153,307.918h0A16.178,16.178,0,0,0,942.331,324.1H994a16.178,16.178,0,0,1,16.178,16.179v51.672a16.178,16.178,0,0,0,16.178,16.178h0a16.178,16.178,0,0,0,16.178-16.178V307.918a16.179,16.179,0,0,0-16.179-16.178H942.331A16.178,16.178,0,0,0,926.153,307.918Z" transform="translate(-1807.773 -23171.045)"/><path class="c" d="M971.6,262.472h0a16.178,16.178,0,0,0,16.178,16.178h51.674a16.178,16.178,0,0,1,16.178,16.179V346.5a16.179,16.179,0,0,0,16.178,16.179h0a16.179,16.179,0,0,0,16.179-16.179V262.472a16.179,16.179,0,0,0-16.179-16.178H987.777A16.178,16.178,0,0,0,971.6,262.472Z" transform="translate(-1794.529 -23184.289)"/><path class="b" d="M1017.045,217.026h0a16.179,16.179,0,0,0,16.178,16.179H1084.9a16.178,16.178,0,0,1,16.178,16.178v51.672a16.179,16.179,0,0,0,16.178,16.179h0a16.179,16.179,0,0,0,16.179-16.179V217.026a16.179,16.179,0,0,0-16.179-16.178h-84.029A16.178,16.178,0,0,0,1017.045,217.026Z" transform="translate(-1781.285 -23197.533)"/><path class="c" d="M1062.491,171.58h0a16.179,16.179,0,0,0,16.178,16.179h51.674a16.178,16.178,0,0,1,16.178,16.178v51.672a16.179,16.179,0,0,0,16.178,16.179h0a16.178,16.178,0,0,0,16.178-16.179V171.58A16.178,16.178,0,0,0,1162.7,155.4h-84.029A16.178,16.178,0,0,0,1062.491,171.58Z" transform="translate(-1768.041 -23210.777)"/><path class="b" d="M1107.937,126.134h0a16.178,16.178,0,0,0,16.177,16.179h51.674a16.178,16.178,0,0,1,16.178,16.178v51.674a16.178,16.178,0,0,0,16.177,16.178h0a16.178,16.178,0,0,0,16.178-16.178v-84.03a16.178,16.178,0,0,0-16.178-16.178h-84.029A16.177,16.177,0,0,0,1107.937,126.134Z" transform="translate(-1754.797 -23224.021)"/><path class="c" d="M1153.383,80.689h0a16.178,16.178,0,0,0,16.178,16.178h51.674a16.178,16.178,0,0,1,16.178,16.178v51.674A16.178,16.178,0,0,0,1253.59,180.9h0a16.178,16.178,0,0,0,16.178-16.178V80.689A16.178,16.178,0,0,0,1253.59,64.51h-84.029A16.178,16.178,0,0,0,1153.383,80.689Z" transform="translate(-1741.553 -23237.266)"/><path class="b" d="M886.869,534.377h0a16.179,16.179,0,0,0,16.179,16.179H954.72A16.177,16.177,0,0,1,970.9,566.733v51.674a16.18,16.18,0,0,0,16.179,16.178h0a16.179,16.179,0,0,0,16.178-16.179V534.377A16.178,16.178,0,0,0,987.077,518.2H903.048A16.179,16.179,0,0,0,886.869,534.377Z" transform="translate(-1819.221 -23105.051)"/><path class="c" d="M932.315,488.931h0a16.179,16.179,0,0,0,16.179,16.178h51.672a16.177,16.177,0,0,1,16.178,16.178v51.674a16.179,16.179,0,0,0,16.179,16.178h0a16.178,16.178,0,0,0,16.178-16.178V488.932a16.179,16.179,0,0,0-16.178-16.179H948.494A16.179,16.179,0,0,0,932.315,488.931Z" transform="translate(-1805.977 -23118.295)"/><path class="b" d="M977.761,443.486h0a16.178,16.178,0,0,0,16.178,16.178h51.674a16.177,16.177,0,0,1,16.178,16.178v51.674a16.179,16.179,0,0,0,16.179,16.178h0a16.178,16.178,0,0,0,16.178-16.178V443.486a16.179,16.179,0,0,0-16.178-16.179h-84.03A16.179,16.179,0,0,0,977.761,443.486Z" transform="translate(-1792.733 -23131.539)"/><path class="c" d="M1023.207,398.04h0a16.178,16.178,0,0,0,16.178,16.178h51.674a16.178,16.178,0,0,1,16.178,16.178v51.674a16.178,16.178,0,0,0,16.178,16.178h0a16.179,16.179,0,0,0,16.179-16.178V398.04a16.179,16.179,0,0,0-16.179-16.179h-84.029A16.179,16.179,0,0,0,1023.207,398.04Z" transform="translate(-1779.489 -23144.783)"/><path class="b" d="M1068.653,352.594h0a16.179,16.179,0,0,0,16.178,16.178H1136.5a16.178,16.178,0,0,1,16.177,16.178v51.674A16.178,16.178,0,0,0,1168.86,452.8h0a16.179,16.179,0,0,0,16.179-16.178V352.594a16.178,16.178,0,0,0-16.179-16.178h-84.029A16.178,16.178,0,0,0,1068.653,352.594Z" transform="translate(-1766.245 -23158.025)"/><path class="c" d="M1114.1,307.148h0a16.178,16.178,0,0,0,16.178,16.178h51.674a16.178,16.178,0,0,1,16.178,16.178v51.674a16.178,16.178,0,0,0,16.178,16.178h0a16.178,16.178,0,0,0,16.179-16.178V307.148a16.178,16.178,0,0,0-16.179-16.178h-84.029A16.178,16.178,0,0,0,1114.1,307.148Z" transform="translate(-1753.001 -23171.27)"/><path class="b" d="M1159.545,261.7h0a16.178,16.178,0,0,0,16.178,16.178H1227.4a16.178,16.178,0,0,1,16.178,16.178v51.674a16.177,16.177,0,0,0,16.178,16.178h0a16.177,16.177,0,0,0,16.178-16.178V261.7a16.177,16.177,0,0,0-16.178-16.178h-84.029A16.178,16.178,0,0,0,1159.545,261.7Z" transform="translate(-1739.757 -23184.514)"/><path class="c" d="M1204.991,216.256h0a16.177,16.177,0,0,0,16.178,16.178h51.674a16.179,16.179,0,0,1,16.178,16.179v51.672a16.178,16.178,0,0,0,16.178,16.178h0a16.177,16.177,0,0,0,16.178-16.178V216.256a16.177,16.177,0,0,0-16.178-16.178h-84.029A16.177,16.177,0,0,0,1204.991,216.256Z" transform="translate(-1726.514 -23197.758)"/><path class="b" d="M938.478,669.945h0a16.177,16.177,0,0,0,16.178,16.178h51.672a16.179,16.179,0,0,1,16.179,16.178v51.674a16.177,16.177,0,0,0,16.178,16.178h0a16.178,16.178,0,0,0,16.178-16.178V669.945a16.178,16.178,0,0,0-16.178-16.178H954.656A16.177,16.177,0,0,0,938.478,669.945Z" transform="translate(-1804.181 -23065.543)"/><path class="c" d="M983.923,624.5h0a16.178,16.178,0,0,0,16.179,16.178h51.672a16.178,16.178,0,0,1,16.178,16.178v51.674a16.178,16.178,0,0,0,16.179,16.178h0a16.178,16.178,0,0,0,16.178-16.178V624.5a16.178,16.178,0,0,0-16.178-16.178H1000.1A16.178,16.178,0,0,0,983.923,624.5Z" transform="translate(-1790.938 -23078.787)"/><path class="b" d="M1029.369,579.053h0a16.178,16.178,0,0,0,16.179,16.178h51.672a16.178,16.178,0,0,1,16.178,16.179v51.672a16.178,16.178,0,0,0,16.179,16.178h0a16.178,16.178,0,0,0,16.178-16.178V579.053a16.178,16.178,0,0,0-16.178-16.178h-84.029A16.178,16.178,0,0,0,1029.369,579.053Z" transform="translate(-1777.694 -23092.031)"/><path class="c" d="M1074.815,533.607h0a16.178,16.178,0,0,0,16.178,16.178h51.674a16.178,16.178,0,0,1,16.178,16.179v51.672a16.178,16.178,0,0,0,16.179,16.178h0a16.178,16.178,0,0,0,16.178-16.178V533.607a16.178,16.178,0,0,0-16.178-16.178h-84.03A16.178,16.178,0,0,0,1074.815,533.607Z" transform="translate(-1764.45 -23105.275)"/><path class="b" d="M1120.261,488.161h0a16.178,16.178,0,0,0,16.178,16.178h51.674a16.177,16.177,0,0,1,16.178,16.178V572.19a16.179,16.179,0,0,0,16.178,16.179h0a16.179,16.179,0,0,0,16.179-16.179V488.161a16.179,16.179,0,0,0-16.179-16.178h-84.029A16.178,16.178,0,0,0,1120.261,488.161Z" transform="translate(-1751.206 -23118.52)"/><path class="c" d="M1165.707,442.715h0a16.179,16.179,0,0,0,16.177,16.179h51.674a16.178,16.178,0,0,1,16.178,16.178v51.672a16.178,16.178,0,0,0,16.177,16.179h0a16.179,16.179,0,0,0,16.179-16.179V442.715a16.179,16.179,0,0,0-16.179-16.178h-84.029A16.178,16.178,0,0,0,1165.707,442.715Z" transform="translate(-1737.962 -23131.764)"/><path class="b" d="M1211.153,397.269h0a16.179,16.179,0,0,0,16.178,16.179H1279a16.178,16.178,0,0,1,16.178,16.178V481.3a16.178,16.178,0,0,0,16.178,16.178h0a16.179,16.179,0,0,0,16.179-16.179V397.269a16.179,16.179,0,0,0-16.179-16.178h-84.029A16.178,16.178,0,0,0,1211.153,397.269Z" transform="translate(-1724.718 -23145.008)"/><path class="c" d="M1256.6,351.823h0A16.178,16.178,0,0,0,1272.776,368h51.674a16.178,16.178,0,0,1,16.178,16.178v51.674a16.178,16.178,0,0,0,16.178,16.178h0a16.178,16.178,0,0,0,16.178-16.178V351.824a16.178,16.178,0,0,0-16.178-16.179h-84.029A16.178,16.178,0,0,0,1256.6,351.823Z" transform="translate(-1711.474 -23158.25)"/><path class="b" d="M990.086,805.512h0a16.178,16.178,0,0,0,16.178,16.179h51.672a16.178,16.178,0,0,1,16.179,16.178v51.672a16.178,16.178,0,0,0,16.178,16.179h0a16.178,16.178,0,0,0,16.178-16.179V805.512a16.179,16.179,0,0,0-16.178-16.178h-84.029A16.178,16.178,0,0,0,990.086,805.512Z" transform="translate(-1789.142 -23026.035)"/><path class="c" d="M1035.531,760.066h0a16.179,16.179,0,0,0,16.179,16.179h51.672a16.178,16.178,0,0,1,16.179,16.178V844.1a16.177,16.177,0,0,0,16.177,16.178h0a16.178,16.178,0,0,0,16.178-16.178v-84.03a16.178,16.178,0,0,0-16.178-16.178H1051.71A16.179,16.179,0,0,0,1035.531,760.066Z" transform="translate(-1775.898 -23039.279)"/><path class="b" d="M1080.977,714.621h0a16.179,16.179,0,0,0,16.179,16.178h51.672a16.177,16.177,0,0,1,16.178,16.178V798.65a16.179,16.179,0,0,0,16.179,16.178h0a16.178,16.178,0,0,0,16.178-16.178V714.621a16.179,16.179,0,0,0-16.178-16.179h-84.029A16.179,16.179,0,0,0,1080.977,714.621Z" transform="translate(-1762.654 -23052.523)"/><path class="c" d="M1126.423,669.175h0a16.179,16.179,0,0,0,16.179,16.178h51.672a16.177,16.177,0,0,1,16.177,16.178V753.2a16.179,16.179,0,0,0,16.179,16.178h0a16.178,16.178,0,0,0,16.178-16.178V669.175A16.179,16.179,0,0,0,1226.631,653H1142.6A16.179,16.179,0,0,0,1126.423,669.175Z" transform="translate(-1749.41 -23065.768)"/><path class="b" d="M1171.869,623.729h0a16.178,16.178,0,0,0,16.178,16.178h51.674a16.178,16.178,0,0,1,16.178,16.178v51.674a16.179,16.179,0,0,0,16.179,16.178h0a16.178,16.178,0,0,0,16.178-16.178V623.729a16.179,16.179,0,0,0-16.178-16.179h-84.03A16.179,16.179,0,0,0,1171.869,623.729Z" transform="translate(-1736.166 -23079.012)"/><path class="c" d="M1217.315,578.283h0a16.179,16.179,0,0,0,16.178,16.178h51.674a16.177,16.177,0,0,1,16.178,16.178v51.674a16.178,16.178,0,0,0,16.178,16.178h0a16.179,16.179,0,0,0,16.179-16.178V578.283a16.178,16.178,0,0,0-16.179-16.178h-84.029A16.178,16.178,0,0,0,1217.315,578.283Z" transform="translate(-1722.922 -23092.256)"/><path class="b" d="M1262.761,532.837h0a16.178,16.178,0,0,0,16.178,16.178h51.674a16.178,16.178,0,0,1,16.178,16.178v51.674a16.178,16.178,0,0,0,16.178,16.178h0a16.178,16.178,0,0,0,16.179-16.178V532.837a16.178,16.178,0,0,0-16.179-16.178h-84.029A16.178,16.178,0,0,0,1262.761,532.837Z" transform="translate(-1709.678 -23105.5)"/><path class="c" d="M1308.207,487.391h0a16.178,16.178,0,0,0,16.178,16.178h51.674a16.178,16.178,0,0,1,16.178,16.178V571.42a16.178,16.178,0,0,0,16.178,16.178h0a16.178,16.178,0,0,0,16.179-16.178V487.391a16.179,16.179,0,0,0-16.179-16.178h-84.029A16.178,16.178,0,0,0,1308.207,487.391Z" transform="translate(-1696.434 -23118.744)"/><path class="b" d="M1041.694,941.08h0a16.178,16.178,0,0,0,16.178,16.178h51.672a16.179,16.179,0,0,1,16.179,16.178v51.674a16.177,16.177,0,0,0,16.178,16.177h0a16.177,16.177,0,0,0,16.177-16.177V941.08A16.177,16.177,0,0,0,1141.9,924.9h-84.029A16.177,16.177,0,0,0,1041.694,941.08Z" transform="translate(-1774.102 -22986.529)"/><path class="c" d="M1087.14,895.634h0a16.177,16.177,0,0,0,16.178,16.178h51.672a16.179,16.179,0,0,1,16.179,16.178v51.674a16.177,16.177,0,0,0,16.178,16.178h0a16.178,16.178,0,0,0,16.178-16.178V895.634a16.178,16.178,0,0,0-16.178-16.178h-84.029A16.177,16.177,0,0,0,1087.14,895.634Z" transform="translate(-1760.858 -22999.771)"/><path class="b" d="M1132.585,850.188h0a16.178,16.178,0,0,0,16.179,16.178h51.672a16.179,16.179,0,0,1,16.179,16.179v51.672a16.177,16.177,0,0,0,16.178,16.178h0a16.178,16.178,0,0,0,16.178-16.178V850.188a16.178,16.178,0,0,0-16.178-16.178h-84.029A16.178,16.178,0,0,0,1132.585,850.188Z" transform="translate(-1747.614 -23013.016)"/><path class="c" d="M1178.031,804.742h0a16.178,16.178,0,0,0,16.179,16.178h51.672A16.178,16.178,0,0,1,1262.06,837.1v51.672a16.178,16.178,0,0,0,16.179,16.178h0a16.178,16.178,0,0,0,16.178-16.178V804.742a16.178,16.178,0,0,0-16.178-16.178H1194.21A16.178,16.178,0,0,0,1178.031,804.742Z" transform="translate(-1734.37 -23026.26)"/><path class="b" d="M1223.477,759.3h0a16.178,16.178,0,0,0,16.179,16.178h51.672a16.178,16.178,0,0,1,16.178,16.179v51.672a16.178,16.178,0,0,0,16.179,16.178h0a16.178,16.178,0,0,0,16.178-16.178V759.3a16.178,16.178,0,0,0-16.178-16.178h-84.029A16.179,16.179,0,0,0,1223.477,759.3Z" transform="translate(-1721.126 -23039.504)"/><path class="c" d="M1268.923,713.85h0a16.179,16.179,0,0,0,16.178,16.179h51.674a16.177,16.177,0,0,1,16.178,16.178v51.672a16.179,16.179,0,0,0,16.179,16.179h0a16.179,16.179,0,0,0,16.178-16.179V713.85a16.179,16.179,0,0,0-16.178-16.178H1285.1A16.178,16.178,0,0,0,1268.923,713.85Z" transform="translate(-1707.882 -23052.748)"/><path class="b" d="M1314.369,668.4h0a16.179,16.179,0,0,0,16.178,16.179h51.674A16.177,16.177,0,0,1,1398.4,700.76v51.672a16.179,16.179,0,0,0,16.178,16.179h0a16.179,16.179,0,0,0,16.179-16.179V668.4a16.179,16.179,0,0,0-16.179-16.178h-84.029A16.178,16.178,0,0,0,1314.369,668.4Z" transform="translate(-1694.638 -23065.992)"/><path class="c" d="M1359.815,622.958h0a16.179,16.179,0,0,0,16.178,16.179h51.674a16.177,16.177,0,0,1,16.178,16.178v51.674a16.178,16.178,0,0,0,16.178,16.178h0a16.179,16.179,0,0,0,16.179-16.178v-84.03a16.179,16.179,0,0,0-16.179-16.178h-84.029A16.178,16.178,0,0,0,1359.815,622.958Z" transform="translate(-1681.394 -23079.236)"/></g></svg>