<svg xmlns="http://www.w3.org/2000/svg" width="22.494" height="22.493" viewBox="0 0 22.494 22.493"><path d="M.849,2a.412.412,0,0,0-.044.015.935.935,0,1,0,1.069.923H4.056a1.532,1.532,0,0,1,1.113.322,2.273,2.273,0,0,1,.556,1.054L9.474,19.44a3.6,3.6,0,0,0,.674,1.538,1.832,1.832,0,0,0,.615.454,1.832,1.832,0,0,0-.454,1.186,1.874,1.874,0,1,0,3.749,0,1.841,1.841,0,0,0-.264-.937h2.87a1.841,1.841,0,0,0-.264.937,1.874,1.874,0,1,0,3.749,0,1.848,1.848,0,0,0-.5-1.245.468.468,0,0,0-.439-.63H12.052c-.723,0-1.018-.154-1.215-.381a3.047,3.047,0,0,1-.454-1.142v-.015l-.322-1.274h8.6a.467.467,0,0,0,.439-.308l3.368-8.9a.465.465,0,0,0-.439-.63H7.629l-1-4V4.065A3.141,3.141,0,0,0,5.8,2.556,2.528,2.528,0,0,0,4.056,2H.849ZM7.864,9.029H21.35L18.334,17H9.84Zm4.32,12.652a.937.937,0,1,1-.937.937A.93.93,0,0,1,12.183,21.681Zm6.092,0a.937.937,0,1,1-.937.937A.93.93,0,0,1,18.275,21.681Z" transform="translate(0 -2)"/></svg>