<svg xmlns="http://www.w3.org/2000/svg" width="57.497" height="55.366" viewBox="0 0 57.497 55.366"><defs><style>.a{fill:#e4ca7f;}</style></defs><g transform="translate(299.744 439.581)"><path class="a" d="M-268.165-363.418c0-1.51.012-2.815,0-4.119-.013-1.073.472-1.567,1.565-1.553,2.173.029,4.347.034,6.52,0,1.1-.018,1.575.469,1.573,1.542q-.012,7,0,13.991c0,1.083-.493,1.577-1.563,1.572-2.173-.011-4.347-.027-6.52.007-1.153.018-1.672-.518-1.675-1.629,0-1.3,0-2.6,0-4.046h-29.309c-1.953,0-2.143-.2-2.161-2.2-.034-3.827-.113-3.57,3.522-3.565q13.108.017,26.216,0Z" transform="translate(0 -51.32)"/><path class="a" d="M-288.254-433.955c0-1.436.033-2.7-.01-3.952-.038-1.133.418-1.686,1.583-1.674q3.259.034,6.519,0c1.082-.011,1.566.479,1.563,1.56q-.02,6.994,0,13.989c0,1.071-.441,1.6-1.528,1.6-2.218-.01-4.437-.02-6.655.005-1.1.013-1.567-.532-1.568-1.574,0-1.3,0-2.6,0-4.052-3.04,0-5.925,0-8.809,0-2.337,0-2.553-.218-2.557-2.56-.007-3.339-.007-3.339,3.363-3.339Z" transform="translate(-0.021 0)"/><path class="a" d="M-288.348-287.476h-8.835c-2.412,0-2.528-.117-2.531-2.53,0-3.233,0-3.233,3.179-3.233h8.282c0-1.42.028-2.719-.008-4.017-.032-1.142.468-1.666,1.615-1.655,2.172.021,4.345.016,6.517,0,1.09-.007,1.537.523,1.533,1.591q-.025,6.992,0,13.984c0,1.09-.511,1.543-1.587,1.529-2.172-.029-4.345-.043-6.516.006-1.186.027-1.644-.539-1.644-1.634C-288.348-284.731-288.348-286.029-288.348-287.476Z" transform="translate(-0.021 -102.416)"/><path class="a" d="M-208.133-412.993v-5.834c.5-.024.941-.063,1.381-.063q14.548,0,29.1,0c1.835,0,2.094.269,2.1,2.135.02,3.764.02,3.764-3.8,3.764h-28.777Z" transform="translate(-66.698 -15.062)"/><path class="a" d="M-208.138-272.2v-5.856h1.382q14.537,0,29.073,0c1.837,0,2.116.283,2.128,2.116.023,3.739.023,3.739-3.674,3.739h-28.909Z" transform="translate(-66.695 -117.601)"/><path class="a" d="M-134.219-342.488v-5.757h3.245c2.575,0,5.15.018,7.725-.007a1.3,1.3,0,0,1,1.507,1.469q.015,1.423,0,2.846c-.009.835-.373,1.434-1.265,1.44C-126.7-342.474-130.4-342.488-134.219-342.488Z" transform="translate(-120.512 -66.493)"/></g></svg>