<svg xmlns="http://www.w3.org/2000/svg" width="17.96" height="19.307" viewBox="0 0 17.96 19.307"><path d="M13.98,3A4.483,4.483,0,0,0,9.49,7.49v2.694a4.5,4.5,0,0,0,1.8,3.578V15.8c0,.047-.009.088-.126.2a2.726,2.726,0,0,1-.6.393c-.552.277-1.351.561-2.161.954a7.376,7.376,0,0,0-2.3,1.614A4.231,4.231,0,0,0,5,21.858v.449H22.96v-.449a4.248,4.248,0,0,0-1.094-2.919,7.244,7.244,0,0,0-2.3-1.6c-.81-.388-1.61-.681-2.161-.954a2.711,2.711,0,0,1-.6-.379c-.116-.109-.126-.154-.126-.21V13.762a4.5,4.5,0,0,0,1.8-3.578V7.49A4.483,4.483,0,0,0,13.98,3Zm0,.9A3.566,3.566,0,0,1,17.572,7.49v2.694a3.616,3.616,0,0,1-1.6,2.989l-.2.14V15.8a1.221,1.221,0,0,0,.407.87,3.359,3.359,0,0,0,.828.533c.628.312,1.4.589,2.161.954a6.462,6.462,0,0,1,2.02,1.389,3.282,3.282,0,0,1,.786,1.866h-16a3.282,3.282,0,0,1,.786-1.852,6.557,6.557,0,0,1,2.02-1.4c.761-.37,1.535-.656,2.161-.968a3.463,3.463,0,0,0,.828-.533,1.193,1.193,0,0,0,.407-.856V13.313l-.2-.14a3.616,3.616,0,0,1-1.6-2.989V7.49A3.566,3.566,0,0,1,13.98,3.9Z" transform="translate(-5 -3)"/></svg>