<svg xmlns="http://www.w3.org/2000/svg" width="71.815" height="54.01" viewBox="0 0 71.815 54.01"><defs><style>.a{fill:#e4ca7f;}</style></defs><g transform="translate(0 -60.15)"><g transform="translate(0 60.15)"><g transform="translate(21.376 17.247)"><path class="a" d="M188.3,176.681H151a6.594,6.594,0,0,0-6.571,6.571v23.621A6.594,6.594,0,0,0,151,213.445h37.3a6.594,6.594,0,0,0,6.571-6.571V183.252A6.575,6.575,0,0,0,188.3,176.681Zm3.034,30.281a2.391,2.391,0,0,1-2.383,2.383H150.928a2.391,2.391,0,0,1-2.383-2.383V190.342h42.787Zm0-22.881H148.545v-.9a2.391,2.391,0,0,1,2.383-2.383H188.95a2.391,2.391,0,0,1,2.383,2.383Z" transform="translate(-144.431 -176.681)"/></g><g transform="translate(0 0)"><path class="a" d="M27.474,73.342H50.607L45.9,63.811a6.585,6.585,0,0,0-8.821-2.975L3.661,77.353A6.585,6.585,0,0,0,.686,86.174l10.479,21.179a6.585,6.585,0,0,0,7.622,3.434A9.894,9.894,0,0,1,17.4,105.71V83.436A10.1,10.1,0,0,1,27.474,73.342Z" transform="translate(0 -60.15)"/></g><g transform="translate(27.962 38.825)"><path class="a" d="M193.193,331.006a4.208,4.208,0,0,0,3.226-1.495,4.262,4.262,0,1,0,0-5.535,4.258,4.258,0,1,0-3.226,7.03Z" transform="translate(-188.931 -322.481)"/></g></g></g></svg>